<svg xmlns="http://www.w3.org/2000/svg" viewBox="0 0 111.72 36.05"><defs><style>.cls-1{fill:#fff;}</style></defs><title>Asset 1</title><g id="Layer_2" data-name="Layer 2"><g id="Logo"><path class="cls-1" d="M3.51,34.19C1.38,34.19,0,32.61,0,30.27s1.4-4,3.53-4a3.66,3.66,0,0,1,2.16.63L5.53,28a3.25,3.25,0,0,0-2-.74c-1.54,0-2.45,1.17-2.45,3s.92,3,2.45,3a3.62,3.62,0,0,0,2.13-.76l.15,1A4,4,0,0,1,3.51,34.19Z"/><path class="cls-1" d="M9.41,34.16A2.42,2.42,0,0,1,7,31.43a2.44,2.44,0,1,1,4.85,0A2.44,2.44,0,0,1,9.41,34.16Zm0-4.64c-.95,0-1.42.81-1.42,1.92s.5,1.91,1.42,1.91,1.45-.81,1.45-1.91S10.35,29.52,9.41,29.52Z"/><path class="cls-1" d="M19.78,34.05V30.48c0-.54-.2-.9-.77-.9a2.18,2.18,0,0,0-1.49.85v3.63h-1V30.48c0-.54-.2-.9-.77-.9a2.18,2.18,0,0,0-1.48.85v3.63h-1V28.8h.78l.12.76A2.76,2.76,0,0,1,16,28.69a1.31,1.31,0,0,1,1.39.87,2.77,2.77,0,0,1,1.85-.87,1.37,1.37,0,0,1,1.49,1.54v3.82Z"/><path class="cls-1" d="M29,34.05V30.48c0-.54-.2-.9-.77-.9a2.18,2.18,0,0,0-1.49.85v3.63h-1V30.48c0-.54-.2-.9-.77-.9a2.18,2.18,0,0,0-1.49.85v3.63h-1V28.8h.78l.12.76a2.76,2.76,0,0,1,1.83-.87,1.31,1.31,0,0,1,1.39.87,2.77,2.77,0,0,1,1.85-.87A1.37,1.37,0,0,1,30,30.23v3.82Z"/><path class="cls-1" d="M35.17,34.05,35,33.29a2.79,2.79,0,0,1-1.86.87,1.39,1.39,0,0,1-1.52-1.54V28.8h1v3.58c0,.54.23.9.8.9A2.25,2.25,0,0,0,35,32.43V28.8h1v5.25Z"/><path class="cls-1" d="M41,34.05V30.48c0-.54-.23-.9-.8-.9a2.25,2.25,0,0,0-1.52.85v3.63h-1V28.8h.78l.12.76a2.82,2.82,0,0,1,1.86-.87A1.4,1.4,0,0,1,42,30.23v3.82Z"/><path class="cls-1" d="M44.3,27.75a.62.62,0,0,1-.63-.62.63.63,0,0,1,.63-.63.62.62,0,0,1,.62.63A.62.62,0,0,1,44.3,27.75Zm-.5,6.31V28.8h1v5.25Z"/><path class="cls-1" d="M48.77,34.16a2.43,2.43,0,0,1-2.44-2.73,2.45,2.45,0,0,1,2.46-2.74,2.85,2.85,0,0,1,1.72.48l-.14,1a2.38,2.38,0,0,0-1.58-.58c-.86,0-1.46.65-1.46,1.87S48,33.3,48.89,33.3a2.15,2.15,0,0,0,1.53-.58l.14.88A2.77,2.77,0,0,1,48.77,34.16Z"/><path class="cls-1" d="M55.19,34.05l-.11-.7a2.47,2.47,0,0,1-1.85.81,1.4,1.4,0,0,1-1.54-1.46c0-1.31,1.12-1.83,3.31-2.06v-.22c0-.66-.4-.89-1-.89a4.51,4.51,0,0,0-1.82.45L52,29.13a5.08,5.08,0,0,1,2-.44c1.28,0,1.89.52,1.89,1.68v3.68ZM55,31.39c-1.94.19-2.34.71-2.34,1.25a.69.69,0,0,0,.78.7A2.23,2.23,0,0,0,55,32.61Z"/><path class="cls-1" d="M59.5,34.14c-.92,0-1.53-.33-1.53-1.39V29.63h-.79V28.8H58V27.05l1-.14V28.8h1.13l.13.83H58.93v2.95c0,.43.18.69.73.69a2.61,2.61,0,0,0,.45,0l.13.84A3.67,3.67,0,0,1,59.5,34.14Z"/><path class="cls-1" d="M62.22,27.75a.62.62,0,0,1-.63-.62.63.63,0,0,1,.63-.63.62.62,0,0,1,.62.63A.61.61,0,0,1,62.22,27.75Zm-.5,6.31V28.8h1v5.25Z"/><path class="cls-1" d="M66.65,34.16a2.42,2.42,0,0,1-2.41-2.73,2.44,2.44,0,1,1,4.85,0A2.44,2.44,0,0,1,66.65,34.16Zm0-4.64c-.95,0-1.42.81-1.42,1.92s.5,1.91,1.42,1.91,1.45-.81,1.45-1.91S67.6,29.52,66.65,29.52Z"/><path class="cls-1" d="M73.86,34.05V30.48c0-.54-.23-.9-.8-.9a2.25,2.25,0,0,0-1.52.85v3.63h-1V28.8h.78l.12.76a2.82,2.82,0,0,1,1.86-.87,1.4,1.4,0,0,1,1.52,1.54v3.82Z"/><path class="cls-1" d="M81.2,31h-.8v3.08h-1V26.46h2c1.61,0,2.57.78,2.57,2.19S82.85,31,81.2,31Zm.12-3.6h-.92v2.68h.86c1,0,1.65-.43,1.65-1.38S82.35,27.37,81.32,27.37Z"/><path class="cls-1" d="M86.22,30.95v3.1h-1V28.8H86l.17,1.07A2.32,2.32,0,0,1,88,28.69l.15.94A2.4,2.4,0,0,0,86.22,30.95Z"/><path class="cls-1" d="M91.31,34.16a2.42,2.42,0,0,1-2.41-2.73,2.44,2.44,0,1,1,4.85,0A2.44,2.44,0,0,1,91.31,34.16Zm0-4.64c-.95,0-1.42.81-1.42,1.92s.5,1.91,1.42,1.91,1.45-.81,1.45-1.91S92.26,29.52,91.31,29.52Z"/><path class="cls-1" d="M94.87,36.05a2.37,2.37,0,0,1-.45,0l-.14-.87a2,2,0,0,0,.46,0,.5.5,0,0,0,.55-.57V28.8h1v5.91A1.23,1.23,0,0,1,94.87,36.05Zm.91-8.31a.62.62,0,0,1-.63-.62.63.63,0,0,1,.63-.63.62.62,0,0,1,.62.63A.61.61,0,0,1,95.79,27.75Z"/><path class="cls-1" d="M102.36,31.53H98.79c0,1.22.62,1.79,1.53,1.79a2.89,2.89,0,0,0,1.88-.75l.14.88a3.27,3.27,0,0,1-2.1.7c-1.36,0-2.43-.83-2.43-2.75,0-1.68,1-2.72,2.31-2.72,1.53,0,2.23,1.18,2.23,2.63Zm-2.24-2.07c-.61,0-1.12.43-1.28,1.33h2.53C101.25,29.95,100.87,29.46,100.11,29.46Z"/><path class="cls-1" d="M106,34.16a2.43,2.43,0,0,1-2.44-2.73A2.45,2.45,0,0,1,106,28.69a2.85,2.85,0,0,1,1.72.48l-.14,1a2.38,2.38,0,0,0-1.58-.58c-.86,0-1.46.65-1.46,1.87s.65,1.88,1.57,1.88a2.15,2.15,0,0,0,1.53-.58l.14.88A2.77,2.77,0,0,1,106,34.16Z"/><path class="cls-1" d="M111,34.14c-.92,0-1.53-.33-1.53-1.39V29.63h-.79V28.8h.79V27.05l1-.14V28.8h1.13l.13.83h-1.27v2.95c0,.43.18.69.73.69a2.6,2.6,0,0,0,.45,0l.13.84A3.67,3.67,0,0,1,111,34.14Z"/><path class="cls-1" d="M7.44,21.91c-4.28,0-7.19-2.79-7.19-7.59,0-5.25,3.34-7.8,7.37-7.8A8.63,8.63,0,0,1,12,7.65l-.61,3.91a5.84,5.84,0,0,0-3.37-1.09c-1.85,0-3.19,1.24-3.19,3.73S6.37,18,8.23,18a6.08,6.08,0,0,0,3.4-1.15l.55,3.73A8.66,8.66,0,0,1,7.44,21.91Z"/><path class="cls-1" d="M22,21.94c-4.1,0-7.1-2.94-7.1-7.71s3-7.77,7.13-7.77,7.16,3,7.16,7.74S26.1,21.94,22,21.94Zm0-11.71c-1.76,0-2.7,1.55-2.7,4s1,4,2.7,4,2.73-1.61,2.73-4S23.76,10.23,22,10.23Z"/><path class="cls-1" d="M49.74,21.64V12.32c0-1.06-.39-1.79-1.46-1.79a3.74,3.74,0,0,0-2.43,1.3v9.8H41.27V12.32c0-1.06-.39-1.79-1.46-1.79a3.67,3.67,0,0,0-2.43,1.3v9.8H32.8V6.77h4l.33,2a6.3,6.3,0,0,1,4.61-2.34,3.66,3.66,0,0,1,3.7,2.34,6.59,6.59,0,0,1,4.64-2.34c2.76,0,4.22,1.73,4.22,4.61V21.64Z"/><path class="cls-1" d="M65.91,3.55a1.6,1.6,0,0,0-1.82,1.82v1.4h2.7l.55,3.73H64.09V21.64H59.51V10.5H57.44V6.77h2.06V4.92C59.51,1.33,61.72,0,65.15,0A14.8,14.8,0,0,1,67,.15l.55,3.52A12,12,0,0,0,65.91,3.55Z"/><path class="cls-1" d="M76.41,21.94c-4.1,0-7.1-2.94-7.1-7.71s3-7.77,7.13-7.77,7.16,3,7.16,7.74S80.54,21.94,76.41,21.94Zm0-11.71c-1.76,0-2.7,1.55-2.7,4s1,4,2.7,4,2.73-1.61,2.73-4S78.2,10.23,76.44,10.23Z"/><path class="cls-1" d="M91.83,13.38v8.25H87.25V6.77h4l.49,2.94c.91-1.7,2.15-3.1,4.34-3.25l.76,4.67A7.32,7.32,0,0,0,91.83,13.38Z"/><path class="cls-1" d="M106.4,21.85c-3.19,0-5.4-1.15-5.4-4.95V10.5H99V6.77h2V2.34l4.55-.7V6.77h2.82l.58,3.73h-3.4v5.67c0,1.21.58,1.76,1.82,1.76a4.14,4.14,0,0,0,1.09-.15l.58,3.76A8.74,8.74,0,0,1,106.4,21.85Z"/></g></g></svg>